<?xml version="1.0" encoding="UTF-8" standalone="no"?>
<!-- Created with Inkscape (http://www.inkscape.org/) -->

<svg
   xmlns:dc="http://purl.org/dc/elements/1.1/"
   xmlns:cc="http://creativecommons.org/ns#"
   xmlns:rdf="http://www.w3.org/1999/02/22-rdf-syntax-ns#"
   xmlns:svg="http://www.w3.org/2000/svg"
   xmlns="http://www.w3.org/2000/svg"
   xmlns:xlink="http://www.w3.org/1999/xlink"
   xmlns:sodipodi="http://sodipodi.sourceforge.net/DTD/sodipodi-0.dtd"
   xmlns:inkscape="http://www.inkscape.org/namespaces/inkscape"
   width="64px"
   height="64px"
   id="svg3012"
   version="1.1"
   inkscape:version="0.48.3.1 r9886"
   sodipodi:docname="model_poly.svg">
  <defs
     id="defs3014">
    <linearGradient
       id="linearGradient4152">
      <stop
         style="stop-color:#9a9a9a;stop-opacity:1;"
         offset="0"
         id="stop4154" />
      <stop
         style="stop-color:#000000;stop-opacity:1;"
         offset="1"
         id="stop4156" />
    </linearGradient>
    <radialGradient
       inkscape:collect="always"
       xlink:href="#linearGradient4152-6"
       id="radialGradient4158-8"
       cx="10.834734"
       cy="62.457718"
       fx="10.834734"
       fy="62.457718"
       r="4.7272725"
       gradientUnits="userSpaceOnUse"
       gradientTransform="matrix(-0.24519584,0.24942871,-0.40249805,-0.43765732,48.3561,83.497786)" />
    <linearGradient
       id="linearGradient4152-6">
      <stop
         style="stop-color:#9a9a9a;stop-opacity:1;"
         offset="0"
         id="stop4154-4" />
      <stop
         style="stop-color:#000000;stop-opacity:1;"
         offset="1"
         id="stop4156-5" />
    </linearGradient>
    <radialGradient
       inkscape:collect="always"
       xlink:href="#linearGradient4152-9"
       id="radialGradient4158-0"
       cx="10.834734"
       cy="62.457718"
       fx="10.834734"
       fy="62.457718"
       r="4.7272725"
       gradientUnits="userSpaceOnUse"
       gradientTransform="matrix(-0.24519584,0.24942871,-0.40249805,-0.43765732,48.3561,83.497786)" />
    <linearGradient
       id="linearGradient4152-9">
      <stop
         style="stop-color:#9a9a9a;stop-opacity:1;"
         offset="0"
         id="stop4154-6" />
      <stop
         style="stop-color:#000000;stop-opacity:1;"
         offset="1"
         id="stop4156-9" />
    </linearGradient>
    <radialGradient
       inkscape:collect="always"
       xlink:href="#linearGradient4152-0"
       id="radialGradient4158-01"
       cx="10.834734"
       cy="62.457718"
       fx="10.834734"
       fy="62.457718"
       r="4.7272725"
       gradientUnits="userSpaceOnUse"
       gradientTransform="matrix(-0.24519584,0.24942871,-0.40249805,-0.43765732,48.3561,83.497786)" />
    <linearGradient
       id="linearGradient4152-0">
      <stop
         style="stop-color:#9a9a9a;stop-opacity:1;"
         offset="0"
         id="stop4154-8" />
      <stop
         style="stop-color:#000000;stop-opacity:1;"
         offset="1"
         id="stop4156-3" />
    </linearGradient>
    <radialGradient
       inkscape:collect="always"
       xlink:href="#linearGradient4152-2"
       id="radialGradient4158-2"
       cx="10.834734"
       cy="62.457718"
       fx="10.834734"
       fy="62.457718"
       r="4.7272725"
       gradientUnits="userSpaceOnUse"
       gradientTransform="matrix(-0.24519584,0.24942871,-0.40249805,-0.43765732,48.3561,83.497786)" />
    <linearGradient
       id="linearGradient4152-2">
      <stop
         style="stop-color:#9a9a9a;stop-opacity:1;"
         offset="0"
         id="stop4154-9" />
      <stop
         style="stop-color:#000000;stop-opacity:1;"
         offset="1"
         id="stop4156-7" />
    </linearGradient>
    <radialGradient
       inkscape:collect="always"
       xlink:href="#linearGradient4152-5"
       id="radialGradient4158-09"
       cx="10.834734"
       cy="62.457718"
       fx="10.834734"
       fy="62.457718"
       r="4.7272725"
       gradientUnits="userSpaceOnUse"
       gradientTransform="matrix(-0.24519584,0.24942871,-0.40249805,-0.43765732,48.3561,83.497786)" />
    <linearGradient
       id="linearGradient4152-5">
      <stop
         style="stop-color:#9a9a9a;stop-opacity:1;"
         offset="0"
         id="stop4154-97" />
      <stop
         style="stop-color:#000000;stop-opacity:1;"
         offset="1"
         id="stop4156-57" />
    </linearGradient>
    <radialGradient
       inkscape:collect="always"
       xlink:href="#linearGradient4152-21"
       id="radialGradient4158-86"
       cx="10.834734"
       cy="62.457718"
       fx="10.834734"
       fy="62.457718"
       r="4.7272725"
       gradientUnits="userSpaceOnUse"
       gradientTransform="matrix(-0.24519584,0.24942871,-0.40249805,-0.43765732,48.3561,83.497786)" />
    <linearGradient
       id="linearGradient4152-21">
      <stop
         style="stop-color:#9a9a9a;stop-opacity:1;"
         offset="0"
         id="stop4154-7" />
      <stop
         style="stop-color:#000000;stop-opacity:1;"
         offset="1"
         id="stop4156-4" />
    </linearGradient>
    <filter
       inkscape:collect="always"
       id="filter4601"
       x="-0.52675928"
       width="2.0535186"
       y="-0.13566754"
       height="1.2713351">
      <feGaussianBlur
         inkscape:collect="always"
         stdDeviation="2.8431423"
         id="feGaussianBlur4603" />
    </filter>
    <filter
       inkscape:collect="always"
       id="filter4605"
       x="-0.12997955"
       width="1.2599591"
       y="-0.42888445"
       height="1.8577689">
      <feGaussianBlur
         inkscape:collect="always"
         stdDeviation="2.8431423"
         id="feGaussianBlur4607" />
    </filter>
    <filter
       inkscape:collect="always"
       id="filter4609"
       x="-0.16891856"
       width="1.3378371"
       y="-0.15580569"
       height="1.3116114">
      <feGaussianBlur
         inkscape:collect="always"
         stdDeviation="2.8431423"
         id="feGaussianBlur4611" />
    </filter>
    <filter
       inkscape:collect="always"
       id="filter4631"
       x="-0.21017581"
       width="1.4203516"
       y="-0.25275732"
       height="1.5055146">
      <feGaussianBlur
         inkscape:collect="always"
         stdDeviation="2.2617754"
         id="feGaussianBlur4633" />
    </filter>
    <filter
       inkscape:collect="always"
       id="filter4649"
       x="-0.19801025"
       width="1.3960205"
       y="-0.26382884"
       height="1.5276577">
      <feGaussianBlur
         inkscape:collect="always"
         stdDeviation="2.280118"
         id="feGaussianBlur4651" />
    </filter>
  </defs>
  <sodipodi:namedview
     id="base"
     pagecolor="#ffffff"
     bordercolor="#666666"
     borderopacity="1.0"
     inkscape:pageopacity="0.0"
     inkscape:pageshadow="2"
     inkscape:zoom="5.5"
     inkscape:cx="25.180127"
     inkscape:cy="32"
     inkscape:current-layer="layer2"
     showgrid="true"
     inkscape:document-units="px"
     inkscape:grid-bbox="true"
     inkscape:window-width="1195"
     inkscape:window-height="966"
     inkscape:window-x="705"
     inkscape:window-y="118"
     inkscape:window-maximized="0" />
  <metadata
     id="metadata3017">
    <rdf:RDF>
      <cc:Work
         rdf:about="">
        <dc:format>image/svg+xml</dc:format>
        <dc:type
           rdf:resource="http://purl.org/dc/dcmitype/StillImage" />
        <dc:title></dc:title>
      </cc:Work>
    </rdf:RDF>
  </metadata>
  <g
     inkscape:groupmode="layer"
     id="layer3"
     inkscape:label="Ebene#1"
     style="display:inline">
    <path
       style="fill:none;stroke:#ffffff;stroke-width:6.47800016;stroke-linecap:butt;stroke-linejoin:bevel;stroke-miterlimit:4;stroke-opacity:1;stroke-dasharray:none;display:inline;filter:url(#filter4609)"
       d="m 18.301927,20.185081 40.395452,-5.303326 -1.36356,35.583603 -37.668332,8.2116 z"
       id="path3026-5"
       inkscape:connector-curvature="0"
       sodipodi:nodetypes="ccccc" />
    <path
       style="fill:none;stroke:#ffffff;stroke-width:6.47800016;stroke-linecap:butt;stroke-linejoin:bevel;stroke-miterlimit:4;stroke-opacity:1;stroke-dasharray:none;display:inline;filter:url(#filter4605)"
       d="M 18.813263,20.698307 6.0298933,8.2098302 42.846,4.7883302 58.526934,15.052829"
       id="path3028-4"
       inkscape:connector-curvature="0"
       sodipodi:nodetypes="cccc" />
    <path
       style="fill:none;stroke:#ffffff;stroke-width:6.47800016;stroke-linecap:butt;stroke-linejoin:bevel;stroke-miterlimit:4;stroke-opacity:1;stroke-dasharray:none;display:inline;filter:url(#filter4601)"
       d="M 19.495042,58.848034 9.0979023,43.451284 6.5412283,8.5519812"
       id="path3030-5"
       inkscape:connector-curvature="0"
       sodipodi:nodetypes="ccc" />
  </g>
  <g
     inkscape:groupmode="layer"
     id="layer2"
     inkscape:label="Ebene"
     style="display:inline">
    <path
       style="fill:#a890f4;fill-opacity:1;stroke:none"
       d="M 18.909091,20.363636 58.363636,15.272727 56.909091,50.545455 19.454545,59.090909 z"
       id="path4298"
       inkscape:connector-curvature="0" />
    <path
       style="fill:none;stroke:#000000;stroke-width:4.69999981;stroke-linecap:butt;stroke-linejoin:round;stroke-miterlimit:4;stroke-opacity:0.16568047;stroke-dasharray:none;filter:url(#filter4631)"
       d="m 26.181818,23.272727 c 0.66541,0.232181 1.316296,0.181818 2,0.181818 0.181818,0 0.365464,0.02571 0.545455,0 0.494747,-0.07068 0.958634,-0.301647 1.454545,-0.363636 0.240552,-0.03007 0.486721,0.03007 0.727273,0 0.495911,-0.06199 0.958634,-0.301647 1.454545,-0.363636 0.240553,-0.03007 0.484849,0 0.727273,0 0.242424,-0.06061 0.479899,-0.146479 0.727273,-0.181818 0.179991,-0.02571 0.367167,0.03566 0.545454,0 0.132888,-0.02658 0.230749,-0.155241 0.363637,-0.181819 0.416004,-0.0832 0.852748,0.06 1.272727,0 0.189727,-0.0271 0.355728,-0.154714 0.545455,-0.181818 0.239987,-0.03428 0.487285,0.03428 0.727272,0 0.189727,-0.0271 0.357523,-0.144232 0.545455,-0.181818 0.118858,-0.02377 0.246043,0.0294 0.363636,0 0.131473,-0.03287 0.232164,-0.14895 0.363637,-0.181818 0.117593,-0.0294 0.242424,0 0.363636,0 0.121212,0 0.242424,0 0.363636,0 0.06061,0 0.124322,0.01917 0.181818,0 0.128565,-0.04285 0.235072,-0.138963 0.363637,-0.181818 0.172488,-0.0575 0.369065,0.0441 0.545454,0 0.131473,-0.03287 0.235072,-0.138964 0.363637,-0.181819 0.0575,-0.01917 0.121212,0 0.181818,0 0.181729,0 0.753539,0.03889 0.909091,0 0.185931,-0.04648 0.357523,-0.144231 0.545454,-0.181818 0.118859,-0.02377 0.246044,0.0294 0.363637,0 0.131473,-0.03287 0.232163,-0.14895 0.363636,-0.181818 0.117593,-0.0294 0.246043,0.0294 0.363636,0 0.131473,-0.03287 0.232164,-0.14895 0.363637,-0.181818 0.247661,-0.06191 0.870947,0.07332 1.090909,0 0.08131,-0.0271 0.105157,-0.143488 0.181818,-0.181818 0.05421,-0.0271 0.121212,0 0.181818,0 0.121212,0 0.242425,0 0.363637,0 0.424242,0 0.848484,0 1.272727,0 0.1831,0 0.99036,-0.03352 1.090909,0 0.08131,0.0271 0.100507,0.154714 0.181818,0.181818 0.219962,0.07332 0.843248,-0.06191 1.090909,0 0.131473,0.03287 0.235072,0.138963 0.363637,0.181818 0.193202,0.0644 0.53407,-0.0644 0.727272,0 0.128565,0.04285 0.235072,0.138963 0.363637,0.181818 0.0575,0.01917 0.121212,0 0.181818,0 0.121212,0 0.248644,-0.03833 0.363636,0 0.08131,0.0271 0.105157,0.143488 0.181818,0.181818 0.108416,0.05421 0.255221,-0.05421 0.363637,0 0.07666,0.03833 0.143487,0.105157 0.181818,0.181819 0.02038,0.04075 0,0.684067 0,0.727272 0,0.545455 0,1.090909 0,1.636364 0,0.121212 0,0.242424 0,0.363636 0,0.06061 0.01917,0.124323 0,0.181819 -0.04286,0.128564 -0.138963,0.235071 -0.181818,0.363636 -0.01917,0.0575 0.0271,0.12761 0,0.181818 -0.03833,0.07666 -0.143488,0.105157 -0.181818,0.181818 -0.0271,0.05421 0.0271,0.127611 0,0.181818 -0.02414,0.04828 -0.49718,0.521318 -0.545455,0.545455 -0.05421,0.0271 -0.12761,-0.0271 -0.181818,0 -0.153323,0.07666 -0.221007,0.26855 -0.363636,0.363636 -0.112759,0.07517 -0.250878,0.106646 -0.363637,0.181819 -0.07131,0.04754 -0.110503,0.134274 -0.181818,0.181818 -0.115867,0.07725 -0.972974,0.515971 -1.090909,0.545454 -0.117593,0.0294 -0.246043,-0.0294 -0.363636,0 -0.131473,0.03287 -0.232164,0.14895 -0.363637,0.181818 -0.117593,0.0294 -0.246043,-0.0294 -0.363636,0 -0.262946,0.06574 -0.470143,0.277927 -0.727273,0.363637 -0.163636,0.05455 -0.381818,-0.05455 -0.545454,0 -0.08131,0.0271 -0.100507,0.154714 -0.181819,0.181818 -0.103429,0.03448 -0.737847,0 -0.909091,0 -0.06061,0 -0.138963,-0.04285 -0.181818,0 -0.04286,0.04285 0.04285,0.138963 0,0.181818 -0.08571,0.08571 -0.277926,-0.08571 -0.363636,0 -0.04285,0.04285 0.04286,0.138963 0,0.181818 -0.376188,0.376189 0.01471,-0.574865 -0.363636,0.181819 -0.02351,0.04701 0,0.962036 0,1.090909 0,0.06061 -0.04285,0.138963 0,0.181818 0.04286,0.04285 0.138963,-0.04285 0.181818,0 0.04286,0.04285 -0.0271,0.12761 0,0.181818 0.03833,0.07666 0.143487,0.105157 0.181818,0.181818 0.0271,0.05421 -0.04285,0.138963 0,0.181818 0.376188,0.376189 -0.01471,-0.574865 0.363636,0.181819 0.0271,0.05421 -0.0271,0.12761 0,0.181818 0.02414,0.04827 0.49718,0.521317 0.545455,0.545454 0.108415,0.05421 0.255221,-0.05421 0.363636,0 0.756684,0.378342 -0.19437,-0.01255 0.181818,0.363637 0.04375,0.04375 0.683522,-0.04375 0.727273,0 0.04285,0.04285 -0.04286,0.138963 0,0.181818 0.08571,0.08571 0.255221,-0.05421 0.363636,0 0.07666,0.03833 0.105157,0.143487 0.181819,0.181818 0.125588,0.06279 0.845269,-0.06382 0.909091,0 0.04286,0.04286 -0.04285,0.138963 0,0.181818 0.08571,0.08571 0.277926,-0.08571 0.363636,0 0.04286,0.04286 -0.05421,0.154715 0,0.181818 C 49.878788,32.848485 49,32 49.272727,32.545455 c 0.192,0.384 0.171637,-0.02036 0.363637,0.363636 0.05421,0.108415 -0.05421,0.255221 0,0.363636 0.03833,0.07666 0.143487,0.105157 0.181818,0.181818 0.05421,0.108416 -0.03833,0.248645 0,0.363637 0.04286,0.128565 0.138963,0.235071 0.181818,0.363636 0.03614,0.108413 0,0.914752 0,1.090909 0,0.09508 0.0239,0.679465 0,0.727273 -0.07666,0.153323 -0.286975,0.210314 -0.363636,0.363636 -0.0271,0.05421 0.04286,0.138964 0,0.181819 -0.09583,0.09583 -0.26781,0.08599 -0.363637,0.181818 -0.09583,0.09583 -0.106645,0.250877 -0.181818,0.363636 -0.236482,0.354724 -0.08776,0.08986 -0.363636,0.181818 -0.128565,0.04285 -0.250878,0.106646 -0.363637,0.181818 -0.14263,0.09509 -0.210313,0.286976 -0.363636,0.363637 -0.05421,0.0271 -0.124322,-0.01917 -0.181818,0 -1.316985,0.438995 0.286656,-0.05242 -0.545455,0.363636 -0.05421,0.0271 -0.138963,-0.04286 -0.181818,0 -0.04286,0.04286 0.04285,0.138963 0,0.181818 -0.04286,0.04286 -0.138963,-0.04286 -0.181818,0 -0.0073,0.0073 0,0.660503 0,0.727273 0,0.09508 -0.0239,0.679465 0,0.727273 0.03833,0.07666 0.143487,0.105157 0.181818,0.181818 0.0271,0.05421 0,0.121212 0,0.181818 0.06061,0.121212 0.106646,0.250878 0.181818,0.363637 0.104594,0.15689 0.403439,0.403438 0.545455,0.545454 0.09572,0.09572 0.448348,0.496902 0.545454,0.545455 0.108416,0.05421 0.255221,-0.05421 0.363637,0 0.07666,0.03833 0.105157,0.143487 0.181818,0.181818 0.05421,0.0271 0.12761,-0.0271 0.181818,0 0.07666,0.03833 0.105157,0.143487 0.181818,0.181818 0.108416,0.05421 0.277927,-0.08571 0.363637,0 0.242424,0.242424 -0.303031,0.181818 0.181818,0.181818"
       id="path4613"
       inkscape:connector-curvature="0" />
    <path
       style="fill:none;stroke:#ffffff;stroke-width:4.80000019;stroke-linecap:butt;stroke-linejoin:round;stroke-miterlimit:4;stroke-opacity:0.17751483;stroke-dasharray:none;filter:url(#filter4649)"
       d="m 23.818182,28 c 0.242424,0.121212 0.494859,0.224188 0.727273,0.363636 0.135529,0.08132 0.421162,0.421163 0.545454,0.545455 0.06061,0.06061 0.105157,0.143487 0.181818,0.181818 0.05421,0.0271 0.121212,0 0.181818,0 0.06061,0.06061 0.105157,0.143488 0.181819,0.181818 0.108415,0.05421 0.255221,-0.05421 0.363636,0 0.07666,0.03833 0.105157,0.143488 0.181818,0.181818 0.108416,0.05421 0.255221,-0.05421 0.363637,0 0.07666,0.03833 0.105156,0.143488 0.181818,0.181819 0.05421,0.0271 0.124322,-0.01917 0.181818,0 0.128565,0.04285 0.235071,0.138963 0.363636,0.181818 0.114992,0.03833 0.242425,0 0.363637,0 0.152218,0 1.154365,-0.03945 1.272727,0 0.128565,0.04285 0.235071,0.138963 0.363636,0.181818 0.109081,0.03636 0.764008,0 0.909091,0 0.424243,0 0.848485,0 1.272727,0 0.08188,0 0.490122,0.02767 0.545455,0 0.07666,-0.03833 0.105157,-0.143488 0.181818,-0.181818 0.120496,-0.06025 0.574886,0.0508 0.727273,0 0.128565,-0.04285 0.235071,-0.138963 0.363636,-0.181818 0.0575,-0.01917 0.121212,0 0.181818,0 0.138803,0 0.976355,0.03818 1.09091,0 0.128564,-0.04285 0.235071,-0.138964 0.363636,-0.181819 0.107295,-0.03576 0.807504,0 0.909091,0 0.545454,0 1.090909,0 1.636363,0 0.484849,0 0.969697,0 1.454546,0 0.06061,0 0.138963,-0.04285 0.181818,0 0.08571,0.08571 -0.05421,0.255221 0,0.363637 0.03833,0.07666 0.143488,0.105157 0.181818,0.181818 0.0271,0.05421 -0.04286,0.138963 0,0.181818 0.04285,0.04285 0.138963,-0.04285 0.181818,0 0.04285,0.04285 0,0.121212 0,0.181818 0,0.08188 0.02767,0.490121 0,0.545455 -0.07666,0.153322 -0.286975,0.210314 -0.363636,0.363636 -0.0271,0.05421 0.04285,0.138963 0,0.181818 -0.04286,0.04285 -0.121212,0 -0.181818,0 -0.06061,0.06061 -0.134275,0.110504 -0.181818,0.181819 C 38.6521,31.749122 38.620627,31.887241 38.545455,32 38.497915,32.07131 38.424242,32.121212 38.363636,32.181818 38.242424,32.30303 38.121212,32.424242 38,32.545455 c -0.121212,0.121212 -0.221006,0.268549 -0.363636,0.363636 -0.112759,0.07517 -0.250878,0.106646 -0.363637,0.181818 -0.14263,0.09509 -0.221006,0.26855 -0.363636,0.363636 -0.112759,0.07517 -0.250878,0.106646 -0.363636,0.181819 -0.07131,0.04754 -0.121213,0.121212 -0.181819,0.181818 -0.06061,0.06061 -0.143487,0.105157 -0.181818,0.181818 -0.0271,0.05421 0.04286,0.138963 0,0.181818 -0.04286,0.04286 -0.138963,-0.04286 -0.181818,0 -0.04286,0.04286 0.04286,0.138963 0,0.181818 -0.04286,0.04286 -0.138963,-0.04286 -0.181818,0 -0.0082,0.0082 0,0.823364 0,0.909091 0,0.09508 -0.0239,0.679465 0,0.727273 0.201005,0.40201 0.112844,0.05642 0.363636,0.181818 0.07666,0.03833 0.105157,0.143488 0.181818,0.181818 0.05421,0.0271 0.127611,-0.0271 0.181819,0 0.756683,0.378342 -0.194371,-0.01255 0.181818,0.363637 0.08571,0.08571 0.255221,-0.05421 0.363636,0 0.07666,0.03833 0.105157,0.143487 0.181818,0.181818 0.108416,0.05421 0.255221,-0.05421 0.363637,0 0.07666,0.03833 0.105157,0.143487 0.181818,0.181818 0.05421,0.0271 0.12761,-0.0271 0.181818,0 0.07666,0.03833 0.100507,0.154714 0.181818,0.181818 0.114992,0.03833 0.248645,-0.03833 0.363637,0 0.08131,0.0271 0.105156,0.143488 0.181818,0.181818 0.05421,0.0271 0.138963,-0.04286 0.181818,0 0.04286,0.04285 -0.04285,0.138964 0,0.181819 0.376188,0.376188 -0.01471,-0.574866 0.363636,0.181818 0.125396,0.250792 -0.220192,0.162631 0.181818,0.363636 0.05421,0.0271 0.127611,-0.0271 0.181819,0 0.218181,0.109091 0.327272,0.436364 0.545454,0.545455 0.05421,0.0271 0.138963,-0.04285 0.181818,0 0.04286,0.04286 -0.04286,0.138963 0,0.181818 0.376189,0.376188 -0.0147,-0.574866 0.363637,0.181818 0.0271,0.05421 -0.04285,0.138963 0,0.181818 0.04286,0.04285 0.138963,-0.04286 0.181818,0 0.04286,0.04285 -0.0271,0.127611 0,0.181818 0.03833,0.07666 0.143487,0.105157 0.181818,0.181819 0.0271,0.05421 -0.0271,0.12761 0,0.181818 0.03833,0.07666 0.143488,0.105157 0.181818,0.181818 0.01351,0.02703 0.01331,0.687349 0,0.727273 -0.242424,0.727272 -0.06061,0.06061 -0.545454,0.545454 -0.04285,0.04285 0.03362,0.131391 0,0.181818 C 40.584643,41.66849 40.363636,41.818182 40.181818,42 40.121212,42.060606 40.071315,42.134275 40,42.181818 c -0.112759,0.07517 -0.242424,0.121212 -0.363636,0.181818 -0.121212,0.06061 -0.235072,0.138964 -0.363637,0.181819 -0.0575,0.01917 -0.124322,-0.01917 -0.181818,0 -0.128565,0.04286 -0.235071,0.138963 -0.363636,0.181818 -0.117779,0.03926 -1.256252,0 -1.454546,0 -0.06061,0 -0.121212,0 -0.181818,0 -0.06061,0 -0.12761,-0.0271 -0.181818,0 -0.07666,0.03833 -0.105157,0.143487 -0.181818,0.181818 -0.108416,0.05421 -0.255221,-0.05421 -0.363637,0 -0.07666,0.03833 -0.105157,0.143487 -0.181818,0.181818 -0.114277,0.05714 -0.612996,-0.05714 -0.727273,0 -0.07666,0.03833 -0.105156,0.143488 -0.181818,0.181818 -0.07209,0.03604 -0.508284,-0.03717 -0.545454,0 -0.04285,0.04285 0.04286,0.138963 0,0.181818 -0.04285,0.04285 -0.127611,-0.0271 -0.181818,0 -0.07666,0.03833 -0.105157,0.143488 -0.181819,0.181819 -0.05421,0.0271 -0.138963,-0.04286 -0.181818,0 -0.04286,0.04286 0.04286,0.138963 0,0.181818 -0.04286,0.04286 -0.12761,-0.0271 -0.181818,0 -0.07666,0.03833 -0.121212,0.121212 -0.181818,0.181818 -0.06061,0.06061 -0.121212,0.121212 -0.181818,0.181818 -0.09572,0.09572 -0.496902,0.448349 -0.545455,0.545455 -0.0271,0.05421 0.0271,0.12761 0,0.181818 -0.378342,0.756684 0.01255,-0.19437 -0.363636,0.181818 -0.04285,0.04285 0.01917,0.124322 0,0.181818 -0.04285,0.128565 -0.121212,0.242425 -0.181818,0.363637 -0.121213,0.242424 -0.242425,0.484848 -0.363637,0.727272 -0.06061,0.121212 -0.14895,0.232164 -0.181818,0.363637 -0.0294,0.117593 0.03833,0.248644 0,0.363636 -0.0271,0.08131 -0.143488,0.105157 -0.181818,0.181818 -0.0239,0.04781 0,0.632197 0,0.727273 0,0.06061 -0.04285,0.138963 0,0.181818 0.04285,0.04286 0.138963,-0.04286 0.181818,0 0.04286,0.04286 -0.04285,0.138963 0,0.181818 0.08571,0.08571 0.277926,-0.08571 0.363636,0 0.04286,0.04286 -0.04286,0.138964 0,0.181819 0.08571,0.08571 0.255221,-0.05421 0.363637,0 0.07666,0.03833 0.105157,0.143487 0.181818,0.181818 0.05421,0.0271 0.121212,0 0.181818,0 0.06061,0 0.121212,0 0.181818,0 0.181818,0 0.363637,0 0.545455,0 0.424242,0 0.848485,0 1.272727,0 0.848485,0 1.69697,0 2.545455,0 0.200476,0 0.960247,0.03267 1.090909,0 0.08315,-0.02079 0.100506,-0.154715 0.181818,-0.181818 0.150586,-0.0502 0.793465,0.05781 0.909091,0 0.07666,-0.03833 0.100506,-0.154715 0.181818,-0.181819 0.114992,-0.03833 0.248644,0.03833 0.363636,0 0.08131,-0.0271 0.105157,-0.143487 0.181819,-0.181818 0.05421,-0.0271 0.121212,0 0.181818,0 C 40.787883,48.121208 40.83243,48.038331 40.909091,48 41.019495,47.9448 41.889596,48.0552 42,48 c 0.07666,-0.03833 0.105157,-0.143488 0.181818,-0.181818 0.04781,-0.0239 0.632196,0 0.727273,0 0.666667,0 1.333333,0 2,0 0.07188,0 0.831439,0.03883 0.909091,0 0.07666,-0.03833 0.105157,-0.143488 0.181818,-0.181818 0.145455,-0.07273 0.4,0.07273 0.545455,0 0.07666,-0.03833 0.105156,-0.143488 0.181818,-0.181819 0.05533,-0.02767 0.463571,0 0.545454,0 0.424243,0 0.848485,0 1.272728,0 0.969697,0 1.939393,0 2.90909,0"
       id="path4635"
       inkscape:connector-curvature="0" />
  </g>
  <g
     id="layer1"
     inkscape:label="Layer 1"
     inkscape:groupmode="layer"
     style="display:inline">
    <path
       style="fill:none;stroke:#000000;stroke-width:2.778;stroke-linecap:butt;stroke-linejoin:bevel;stroke-miterlimit:4;stroke-opacity:1;stroke-dasharray:none"
       d="m 18.108736,20.195824 40.395452,-5.303326 -1.36356,35.583603 -37.668332,8.2116 z"
       id="path3026"
       inkscape:connector-curvature="0"
       sodipodi:nodetypes="ccccc" />
    <path
       style="fill:none;stroke:#000000;stroke-width:2.778;stroke-linecap:butt;stroke-linejoin:bevel;stroke-miterlimit:4;stroke-opacity:1;stroke-dasharray:none"
       d="M 18.620072,20.70905 5.8367017,8.2205734 42.652809,4.7990731 58.333743,15.063572"
       id="path3028"
       inkscape:connector-curvature="0"
       sodipodi:nodetypes="cccc" />
    <path
       style="fill:none;stroke:#000000;stroke-width:2.778;stroke-linecap:butt;stroke-linejoin:bevel;stroke-miterlimit:4;stroke-opacity:1;stroke-dasharray:none"
       d="M 19.301851,58.858777 8.9047108,43.462027 6.3480371,8.5627239"
       id="path3030"
       inkscape:connector-curvature="0"
       sodipodi:nodetypes="ccc" />
  </g>
  <g
     inkscape:groupmode="layer"
     id="layer4"
     inkscape:label="Ebene#2"
     style="display:inline" />
</svg>
