<?xml version="1.0" encoding="UTF-8" standalone="no"?>
<!-- Created with Inkscape (http://www.inkscape.org/) -->

<svg
   xmlns:dc="http://purl.org/dc/elements/1.1/"
   xmlns:cc="http://creativecommons.org/ns#"
   xmlns:rdf="http://www.w3.org/1999/02/22-rdf-syntax-ns#"
   xmlns:svg="http://www.w3.org/2000/svg"
   xmlns="http://www.w3.org/2000/svg"
   xmlns:sodipodi="http://sodipodi.sourceforge.net/DTD/sodipodi-0.dtd"
   xmlns:inkscape="http://www.inkscape.org/namespaces/inkscape"
   width="64"
   height="64"
   id="svg2"
   version="1.1"
   inkscape:version="0.48.4 r9939"
   sodipodi:docname="cc-rotate.svg"
   inkscape:export-filename="/home/michi/Projekte/Edward/Data/icons/toolbar/cc-move.png"
   inkscape:export-xdpi="90"
   inkscape:export-ydpi="90">
  <defs
     id="defs4">
    <inkscape:path-effect
       effect="spiro"
       id="path-effect3848"
       is_visible="true" />
  </defs>
  <sodipodi:namedview
     id="base"
     pagecolor="#ffffff"
     bordercolor="#666666"
     borderopacity="1.0"
     inkscape:pageopacity="0.0"
     inkscape:pageshadow="2"
     inkscape:zoom="8"
     inkscape:cx="29.663888"
     inkscape:cy="34.383255"
     inkscape:document-units="px"
     inkscape:current-layer="layer1"
     showgrid="true"
     inkscape:snap-grids="true"
     inkscape:window-width="1600"
     inkscape:window-height="845"
     inkscape:window-x="0"
     inkscape:window-y="27"
     inkscape:window-maximized="1">
    <inkscape:grid
       type="xygrid"
       id="grid3757"
       empspacing="5"
       visible="true"
       enabled="true"
       snapvisiblegridlinesonly="true" />
  </sodipodi:namedview>
  <metadata
     id="metadata7">
    <rdf:RDF>
      <cc:Work
         rdf:about="">
        <dc:format>image/svg+xml</dc:format>
        <dc:type
           rdf:resource="http://purl.org/dc/dcmitype/StillImage" />
        <dc:title></dc:title>
      </cc:Work>
    </rdf:RDF>
  </metadata>
  <g
     inkscape:label="Ebene 1"
     inkscape:groupmode="layer"
     id="layer1"
     transform="translate(0,-988.36218)">
    <path
       style="fill:#000000;fill-opacity:1;stroke:#000000;stroke-width:3;stroke-linecap:butt;stroke-linejoin:round;stroke-miterlimit:4;stroke-opacity:1;stroke-dasharray:none"
       d="m 30,1038.1122 c -4.748111,0.1357 -9.520627,-1.7618 -12.879418,-5.1206 -3.358792,-3.3588 -5.256242,-8.1313 -5.120582,-12.8794 0.1309,-4.5815 2.147023,-9.0809 5.479185,-12.2279 3.332162,-3.1471 7.939326,-4.903 12.520815,-4.7721 4.414868,0.1261 8.756361,1.9975 11.879418,5.1206 3.123057,3.123 4.994443,7.4645 5.120582,11.8794 l -7,0 10,9 10,-9 -7,0 c -0.295977,-5.8398 -2.900256,-11.5314 -7.125726,-15.5731 -4.22547,-4.0418 -10.027131,-6.39065 -15.874274,-6.42692 -5.873895,-0.0364 -11.736719,2.26652 -15.99,6.31792 -4.2532814,4.0514 -6.8413908,9.8105 -7.01,15.6821 -0.174228,6.0673 2.2500143,12.1661 6.54198,16.458 4.291965,4.292 10.390766,6.7162 16.45802,6.542 l 0,-5"
       id="path3846"
       inkscape:path-effect="#path-effect3848"
       inkscape:original-d="m 30,1038.1122 c 0,0 -18,-10.929 -18,-18 0,-7.0711 10.928932,-17 18,-17 7.071068,0 17,17 17,17 l -7,0 10,9 10,-9 -7,0 c 0,0 -11.214887,-22.00002 -23,-22.00002 -11.785113,0 -23,10.21492 -23,22.00002 0,11.7851 23,23 23,23 6.156465,-5.8679 5.727748,0.7277 0,-5 z"
       inkscape:connector-curvature="0"
       sodipodi:nodetypes="csscccccsscc" />
  </g>
</svg>
